<svg width="26" height="30" viewBox="0 0 26 30" fill="none" xmlns="http://www.w3.org/2000/svg">
<path d="M8.62305 26.2361C8.62305 26.2361 8.99848 29.1718 11.9343 29.1742C15.632 29.1773 16.2238 28.6651 17.3526 26.2361C17.3526 26.2361 9.75179 26.7529 8.62305 26.2361Z" fill="#CF0F47"/>
<path d="M8.62305 26.2361C8.62305 26.2361 8.99848 29.1718 11.9343 29.1742C15.632 29.1773 16.2238 28.6651 17.3526 26.2361C17.3526 26.2361 9.75179 26.7529 8.62305 26.2361Z" fill="#CF0F47"/>
<path d="M7.59337 23.2558C7.59337 23.2558 7.67411 21.809 6.30027 19.5351C5.17685 17.676 -0.529605 15.5387 0.835631 8.71717C1.63977 4.69879 5.60268 1.58639 10.2251 0.543096C14.4454 -0.409352 22.0917 0.0441586 24.9713 7.27032C27.6588 14.0143 21.3277 17.8168 19.2731 19.8454C17.6332 21.4645 18.1013 23.5772 18.1013 23.5772C18.1013 23.5772 10.9882 25.1852 7.59337 23.2558Z" fill="#FFDEDE"/>
<path d="M13.1693 16.7658C7.62641 16.0663 2.89789 12.0755 1.58553 7.50962C1.52733 7.30732 1.48469 7.10432 1.44453 6.90167C1.17279 7.48271 0.960904 8.08717 0.834667 8.71747C-0.530568 15.539 5.17546 17.6759 6.29929 19.5354C7.67354 21.8093 7.59239 23.2561 7.59239 23.2561C10.9872 25.1855 18.0999 23.5772 18.0999 23.5772C18.0999 23.5772 17.6319 21.4648 19.2717 19.8457C20.3107 18.8198 22.4419 17.3395 23.9486 15.256C20.8521 16.902 16.7966 17.2235 13.1693 16.7658Z" fill="#FFDEDE"/>
<path d="M8.62305 26.2361C8.62305 26.2361 8.69764 26.8119 9.03454 27.4534C9.65261 27.474 12.729 27.9978 16.4357 27.8745C16.6427 27.5355 17.1317 26.7117 17.3526 26.2361C17.3526 26.2361 9.75179 26.7529 8.62305 26.2361Z" fill="#CF0F47"/>
<path d="M6.94625 22.1534C6.94625 22.1534 12.7658 22.7048 18.6661 22.1534C18.6661 22.1534 19.151 26.77 15.8373 26.9076C13.8323 26.9912 11.9457 26.9737 10.7682 26.9468C9.19638 26.9111 7.79999 26.0495 7.31103 24.7753C7.05897 24.1188 6.90445 23.2642 6.94625 22.1534Z" fill="#CF0F47"/>
<path d="M7.95767 24.7169C7.95767 24.7169 15.4302 25.9471 17.9762 24.4636C17.9762 24.4636 17.2426 27.0411 8.87862 25.6579C8.35646 25.5716 7.94579 25.1841 7.95727 24.7306C7.95727 24.726 7.95726 24.7215 7.95767 24.7169Z" fill="#CF0F47"/>
<path d="M17.6719 22.9483C17.6719 22.9483 10.1994 24.1785 7.65332 22.695C7.65332 22.695 8.38696 25.2725 16.7509 23.8892C17.2731 23.8029 17.6838 23.4155 17.6723 22.9619C17.6723 22.9574 17.6719 22.9529 17.6719 22.9483Z" fill="#CF0F47"/>
<path d="M7.95767 24.7169C7.95767 24.7169 15.4302 25.9471 17.9762 24.4636C17.9762 24.4636 17.2426 27.0411 8.87862 25.6579C8.35646 25.5716 7.94579 25.1841 7.95727 24.7306C7.95727 24.726 7.95726 24.7215 7.95767 24.7169Z" fill="#CF0F47"/>
<path d="M17.6719 22.9483C17.6719 22.9483 10.1994 24.1785 7.65332 22.695C7.65332 22.695 8.38696 25.2725 16.7509 23.8892C17.2731 23.8029 17.6838 23.4155 17.6723 22.9619C17.6723 22.9574 17.6719 22.9529 17.6719 22.9483Z" fill="#CF0F47"/>
<path opacity="0.75" d="M21.927 7.81918C20.8405 8.5903 19.1006 8.33559 18.0411 7.25037C16.9816 6.16516 17.0038 4.66067 18.0903 3.88955C19.1768 3.11844 20.9167 3.37315 21.9762 4.45837C23.0356 5.54359 23.0135 7.04807 21.927 7.81918Z" fill="#CF0F47"/>
<path d="M16.1721 5.2334C16.1721 5.2334 15.2979 6.82349 9.33488 10.1864C6.2798 11.9093 6.51178 14.6824 8.65534 16.8892C10.228 18.5079 10.5493 19.0603 11.2182 20.7961C11.2182 20.7961 21.0835 18.7427 18.505 12.4424C16.7381 8.12533 16.2057 6.82104 16.1721 5.2334Z" fill="#FFDEDE"/>
<path opacity="0.32" d="M16.5783 18.0425C12.3367 18.0425 8.64343 15.688 7.22532 12.4515C6.71628 13.8865 7.30566 15.5 8.65532 16.8892C10.2279 18.5079 10.5493 19.0603 11.2182 20.7961C11.2182 20.7961 14.8577 20.0358 17.1373 18.0275C16.9525 18.037 16.766 18.0425 16.5783 18.0425Z" fill="#FF0B55"/>
<path d="M17.261 15.4581C17.261 15.4581 15.9941 16.4961 13.801 16.7319C13.8801 16.2173 13.9186 15.6156 13.8969 14.8861C13.8879 14.5832 13.8846 14.2977 13.8838 14.021C14.0875 13.5668 15.4097 12.911 16.1958 12.6046C16.1958 12.6046 14.7142 12.8953 13.8883 13.3875C13.9375 10.6686 14.3486 9.38489 14.3486 9.38489C14.3117 9.4366 13.5993 10.4694 13.4047 12.9644C12.4431 11.9459 11.498 10.8747 11.498 10.8747C11.5292 10.9404 12.2616 12.4697 13.3678 13.6416C13.3542 14.0311 13.3514 14.4473 13.3657 14.8987C13.3866 15.5447 13.3346 16.1408 13.2415 16.6858C12.0739 16.2079 9.37207 13.2782 9.37207 13.2782C9.76594 13.8935 11.6513 16.7312 13.1489 17.1551C12.7186 19.0474 11.8099 20.1752 11.8099 20.1752C12.5415 19.3611 13.3538 18.7563 13.7133 17.1959C16.2483 16.9601 17.2204 15.5202 17.261 15.4581Z" fill="#CF0F47"/>
</svg>
