<svg width="26" height="26" viewBox="0 0 26 26" fill="none" xmlns="http://www.w3.org/2000/svg">
<path d="M12.625 25.1742C19.5286 25.1742 25.125 19.5778 25.125 12.6742C25.125 5.77063 19.5286 0.174194 12.625 0.174194C5.72144 0.174194 0.125 5.77063 0.125 12.6742C0.125 19.5778 5.72144 25.1742 12.625 25.1742Z" fill="#CF0F47"/>
<path d="M18.817 10.9749V14.3734C18.817 14.6394 18.6015 14.8549 18.3355 14.8549H14.805V18.3854C14.805 18.6514 14.5896 18.8668 14.3235 18.8668H10.9251C10.659 18.8668 10.4436 18.6514 10.4436 18.3854V14.8549H6.91308C6.64707 14.8549 6.43164 14.6394 6.43164 14.3734V10.9749C6.43164 10.7089 6.64707 10.4935 6.91308 10.4935H10.4436V6.96295C10.4436 6.69694 10.659 6.48151 10.9251 6.48151H14.3235C14.5896 6.48151 14.805 6.69694 14.805 6.96295V10.4935H18.3355C18.6015 10.4935 18.817 10.7089 18.817 10.9749Z" fill="white"/>
</svg>
