<svg width="26" height="26" viewBox="0 0 26 26" fill="none" xmlns="http://www.w3.org/2000/svg">
<path d="M12.875 25.1742C12.8269 25.1742 12.7788 25.169 12.7317 25.1586C12.699 25.1514 11.9169 24.9764 10.7612 24.487C9.70592 24.0402 8.11376 23.2301 6.5215 21.9089C4.73245 20.4244 3.30755 18.6109 2.28638 16.5188C1.01807 13.9203 0.375 10.8863 0.375 7.50089V5.2269C0.375 5.06937 0.444818 4.91877 0.568107 4.81034C0.691396 4.70188 0.857472 4.64511 1.02706 4.65337C1.04044 4.65397 2.49759 4.71277 4.6286 4.20725C5.87677 3.91116 7.10941 3.482 8.29226 2.9317C9.76988 2.24426 11.1744 1.3643 12.467 0.316265C12.7006 0.126838 13.0494 0.126838 13.283 0.316265C14.5756 1.3643 15.9801 2.24426 17.4577 2.9317C18.6406 3.482 19.8732 3.91116 21.1214 4.20725C23.2524 4.71277 24.7096 4.65397 24.7241 4.65331C24.894 4.64513 25.0592 4.70186 25.1825 4.81031C25.3058 4.91874 25.375 5.06937 25.375 5.2269V7.50089C25.375 10.8863 24.7319 13.9203 23.4636 16.5188C22.4425 18.6109 21.0176 20.4244 19.2285 21.9089C17.6363 23.2301 16.0441 24.0402 14.9888 24.487C13.8331 24.9764 13.051 25.1514 13.0182 25.1586C12.9712 25.169 12.9231 25.1742 12.875 25.1742ZM1.61437 5.79629V7.50089C1.61437 10.7064 2.2146 13.5693 3.39841 16.01C4.34049 17.9525 5.65401 19.6364 7.30247 21.015C8.77392 22.2456 10.2476 23.0023 11.2247 23.4203C12.0119 23.7571 12.6129 23.9347 12.8751 24.0048C13.1367 23.9348 13.7378 23.7573 14.5254 23.4203C15.5025 23.0023 16.9761 22.2456 18.4476 21.015C20.096 19.6364 21.4096 17.9525 22.3516 16.01C23.5354 13.5693 24.1357 10.7063 24.1357 7.50089V5.79629C23.4637 5.77023 22.3133 5.67122 20.869 5.33295C19.5283 5.01891 18.2049 4.56171 16.9357 3.974C15.5065 3.3122 14.1427 2.4823 12.875 1.50362C11.6074 2.4823 10.2436 3.3122 8.81433 3.974C7.54517 4.56171 6.22181 5.01891 4.88106 5.33295C3.43675 5.67122 2.28633 5.77023 1.61437 5.79629Z" fill="#CF0F47"/>
<path d="M12.8758 23.2568C12.5906 23.1715 12.1222 23.0164 11.5488 22.771C10.6202 22.3737 9.21954 21.6545 7.82014 20.4841C6.25151 19.1722 5.00083 17.5683 4.1029 15.7168C2.96411 13.3689 2.38672 10.6046 2.38672 7.50084V6.46333C3.09228 6.40133 4.0068 6.27545 5.07084 6.02624C6.46541 5.69959 7.84121 5.22433 9.15994 4.61367C10.4566 4.01328 11.704 3.27788 12.8757 2.42358C14.0475 3.27788 15.2949 4.01326 16.5916 4.61367C17.9103 5.22433 19.286 5.69956 20.6806 6.02624C21.7447 6.27545 22.6592 6.40135 23.3648 6.46333V7.50084C23.3648 10.6046 22.7874 13.3689 21.6486 15.7168C20.7507 17.5683 19.5 19.1722 17.9313 20.4841C16.5319 21.6545 15.1313 22.3737 14.2027 22.771C13.629 23.0164 13.1608 23.1716 12.8758 23.2568Z" fill="#CF0F47"/>
<path d="M10.9378 15.5359C13.7578 11.1264 17.019 8.48365 18.0736 7.71491C18.2292 7.60148 18.448 7.6033 18.5879 7.73304C18.7265 7.86145 18.7398 8.06962 18.6103 8.20595C14.3407 12.7033 12.6189 15.8655 11.5995 17.9207C11.44 18.2423 10.9399 18.2532 10.722 17.9625C9.78717 16.7145 8.88449 15.4288 8.12173 14.7694C7.83589 14.5222 7.56189 14.4813 7.33123 14.4704C7.06737 14.458 6.95161 14.1548 7.14575 13.9887C7.56846 13.6271 8.23142 13.3134 9.07883 13.7254C10.0398 14.1926 10.9378 15.5359 10.9378 15.5359Z" fill="white"/>
</svg>
