<svg width="31" height="23" viewBox="0 0 31 23" fill="none" xmlns="http://www.w3.org/2000/svg">
<path d="M1.324 15.0223C0.997993 15.3237 0.664152 15.6532 0.546487 16.0812C0.292379 17.0055 1.12698 17.8478 1.90855 18.403C5.41785 20.8962 9.74136 22.4217 14.0254 21.9992C15.9996 21.8044 17.9108 21.2091 19.7861 20.5624C22.2946 19.6973 24.769 18.7339 27.202 17.675C28.0055 17.3253 28.8294 16.9474 29.415 16.2956C30.0006 15.6437 30.2872 14.6412 29.8659 13.8728C29.4864 13.1808 28.6732 12.869 27.92 12.633C24.4192 11.5363 20.769 10.9228 17.1031 10.7956C13.4092 10.6675 9.6973 11.0324 6.10242 11.8938C5.14591 12.123 4.57523 12.3404 3.79035 12.943C2.93706 13.5981 2.11378 14.2922 1.324 15.0223Z" fill="#CF0F47"/>
<path d="M1.36447 15.2728C1.09404 15.6361 0.835685 16.083 0.961465 16.5181C1.03054 16.757 1.20604 16.9484 1.38032 17.1258C3.91536 19.7063 7.40871 21.3229 11.0166 21.5853C15.8883 21.9394 20.5925 19.9268 25.007 17.836C25.9027 17.4118 26.799 16.9808 27.6305 16.4414C28.1349 16.1142 28.6263 15.7344 28.9317 15.2165C29.2372 14.6988 29.323 14.0155 29.0115 13.5014C28.7376 13.0493 28.2235 12.8092 27.7319 12.6152C27.0028 12.3275 26.2561 12.0846 25.4974 11.8881C23.4823 11.3662 21.3981 11.1753 19.3233 11.0091C15.0765 10.6689 10.7353 10.4322 6.61638 11.5206C4.46123 12.0899 2.69097 13.491 1.36447 15.2728Z" fill="#CF0F47"/>
<path d="M28.5675 13.2919C28.3649 13.9369 27.8564 14.4425 27.3009 14.8277C25.9473 15.7666 24.2821 16.1209 22.6572 16.39C19.8051 16.8632 16.92 17.1397 14.03 17.2169C12.9821 17.2449 11.9203 17.2453 10.9028 16.9917C9.84427 16.7276 8.8738 16.1991 7.91672 15.6756C7.23035 15.3003 6.54285 14.9241 5.89819 14.481C5.63012 14.2967 5.36601 14.0969 5.17465 13.8336C4.77127 13.2781 4.75598 12.5353 4.81382 11.8511C4.98584 9.81661 5.6756 7.82941 6.7879 6.11794C7.06513 5.69125 7.36877 5.28201 7.69695 4.89316C9.05411 3.28642 10.8293 2.03843 12.7953 1.29272C13.7001 0.949344 14.6385 0.811108 15.5992 0.83215C16.912 0.86159 18.2245 0.890747 19.5373 0.920186C20.1113 0.932925 20.6875 0.946041 21.2535 1.03983C23.627 1.43378 25.4269 3.48137 26.6469 5.43365C26.8965 5.83307 27.1252 6.24551 27.3322 6.66899C28.1562 8.35358 28.633 10.209 28.6825 12.0857C28.6833 12.1074 28.6836 12.129 28.684 12.1508C28.6922 12.535 28.6824 12.9256 28.5675 13.2919Z" fill="#CF0F47"/>
<path d="M27.3316 6.66914C27.3036 7.32135 27.2494 7.97214 27.1159 8.61019C26.6321 10.9193 25.1007 12.9403 23.1386 14.2513C21.1769 15.562 18.8142 16.1978 16.4579 16.3171C14.7097 16.4055 12.9269 16.2138 11.3038 15.5594C9.6804 14.905 8.22388 13.7625 7.37059 12.2343C6.91258 11.4141 6.64233 10.4999 6.53901 9.56803C6.42767 8.55933 6.43569 7.21595 6.78746 6.11818C7.06468 5.69149 7.36833 5.28226 7.69651 4.8934C9.05367 3.28666 10.8288 2.03868 12.7949 1.29296C13.6996 0.949588 14.6381 0.811352 15.5988 0.832394C16.9116 0.861834 18.224 0.890991 19.5368 0.920431C20.1108 0.933169 20.6871 0.946285 21.253 1.04008C23.6265 1.43403 25.4264 3.48161 26.6465 5.43389C26.8959 5.83322 27.1247 6.24575 27.3316 6.66914Z" fill="#CF0F47"/>
<path d="M23.2611 1.76455C21.7912 1.32257 20.1913 1.3957 18.7232 1.84381C17.2551 2.29192 15.9136 3.10274 14.7412 4.09332C13.8417 4.85281 13.0268 5.73167 12.4615 6.76433C11.6859 8.18113 11.4149 9.8224 11.3542 11.4364C11.2934 13.0504 11.4302 14.6655 11.4124 16.2806C11.4084 16.6251 11.3931 16.9855 11.22 17.2834C10.9661 17.7207 10.4594 17.8923 9.95662 17.8764C9.62599 17.8658 9.29677 17.7742 9.04361 17.6236C8.31648 17.1914 7.55114 16.7924 6.84977 16.3196C6.26814 15.9274 5.60829 15.6721 5.011 15.2948C4.39701 14.9067 4.57271 14.1555 4.67744 13.5059C5.4559 8.68283 8.88575 4.52728 13.1733 2.18548C13.9728 1.74898 14.8087 1.37362 15.677 1.09677C17.5882 0.487498 19.6904 0.584971 21.6102 1.08479C21.712 1.1113 21.8135 1.13895 21.9143 1.16773C22.3403 1.28889 22.7167 1.50025 23.1136 1.70133C23.177 1.73332 23.2015 1.72671 23.2611 1.76455Z" fill="#CF0F47"/>
<path d="M27.1177 5.7448C26.9361 6.21697 26.3243 5.74772 25.9972 5.6895C25.4815 5.59751 24.9533 5.59817 24.4353 5.66837C23.4139 5.8066 22.4409 6.20668 21.5398 6.69452C19.9917 7.53261 18.5214 8.58603 17.4872 10.0102C17.0831 10.5671 16.7466 11.1785 16.2661 11.6707C16.1759 11.7627 16.0748 11.8541 15.9489 11.8813C15.8106 11.9111 15.6695 11.8591 15.5382 11.8068C15.2156 11.6787 14.8958 11.5442 14.5779 11.4038C14.3532 11.3045 13.9021 11.2553 13.7533 11.0426C13.5926 10.8134 13.7584 10.3507 13.869 10.0339C13.889 9.97716 13.9072 9.92479 13.9214 9.87969C14.5071 8.00563 15.8078 6.75321 17.3905 5.65355C19.1606 4.42331 21.2561 3.63947 23.4085 3.52048C24.0407 3.48557 24.6788 3.55945 25.2761 3.7744C25.6849 3.92132 26.1465 4.09928 26.4808 4.41425C26.6624 4.58523 26.9763 4.98936 27.0948 5.34472C27.1445 5.49343 27.1602 5.63383 27.1177 5.7448Z" fill="#CF0F47"/>
<path d="M27.095 5.34468C27.0692 5.37271 27.0383 5.39564 27.0019 5.41055C27.0019 5.40507 26.3079 5.07265 26.2009 5.05623C25.9448 5.01735 25.6658 5.00311 25.4061 4.99291C23.2312 4.90526 21.0941 5.85177 19.3681 7.12636C19.0087 7.39189 18.6649 7.67997 18.339 7.99248C17.5493 8.75018 16.6428 9.67414 16.1638 10.6654C16.1008 10.7964 16.0317 10.9338 15.9084 11.0103C15.3777 11.3399 14.2773 10.7055 13.9699 10.2853C13.9183 10.2147 13.8862 10.1286 13.8691 10.0339C13.8891 9.97722 13.9074 9.92485 13.9215 9.87975C14.5072 8.00569 15.8079 6.75327 17.3906 5.65361C19.1607 4.42337 21.2562 3.63953 23.4086 3.52054C24.0408 3.48563 24.6789 3.55951 25.2762 3.77446C25.685 3.92138 26.1466 4.09934 26.4809 4.41431C26.6625 4.5851 26.9764 4.98923 27.095 5.34468Z" fill="#FF0B55"/>
<path d="M21.6103 1.08468C21.5321 1.0927 21.4517 1.09883 21.368 1.10251C18.65 1.22292 16.4398 2.16103 14.3908 3.93837C12.9252 5.20929 11.7136 6.8015 11.0541 8.63734C10.6794 9.67991 10.4859 10.7777 10.3225 11.8733C10.1614 12.9559 10.0279 14.0464 10.0468 15.1405C10.0614 15.9604 10.161 16.7869 10.025 17.5956C10.0094 17.6887 9.98795 17.7848 9.95662 17.8764C9.62599 17.8658 9.29677 17.7742 9.04361 17.6236C8.31648 17.1914 7.55114 16.7924 6.84977 16.3196C6.26814 15.9274 5.60829 15.6721 5.011 15.2948C4.39701 14.9067 4.5727 14.1555 4.67744 13.5059C5.4559 8.68282 8.88575 4.52726 13.1733 2.18547C13.9728 1.74897 14.8087 1.37361 15.677 1.09676C17.5883 0.48739 19.6904 0.584957 21.6103 1.08468Z" fill="#FF0B55"/>
</svg>
