<svg width="22" height="26" viewBox="0 0 22 26" fill="none" xmlns="http://www.w3.org/2000/svg">
<path d="M5.19923 0.186322C5.38752 0.135826 5.58107 0.247631 5.63157 0.435925L6.17046 2.44723C6.22096 2.63553 6.10915 2.82908 5.92086 2.87957C5.73256 2.93007 5.53901 2.81826 5.48852 2.62997L4.94963 0.618662C4.89913 0.430369 5.01094 0.236818 5.19923 0.186322Z" fill="#CF0F47"/>
<path d="M1.14201 4.24375C1.19251 4.05546 1.38606 3.94366 1.57435 3.99415L3.58566 4.53304C3.77395 4.58354 3.88576 4.77709 3.83526 4.96538C3.78477 5.15367 3.59122 5.26548 3.40292 5.21498L1.39161 4.6761C1.20332 4.6256 1.09151 4.43205 1.14201 4.24375Z" fill="#CF0F47"/>
<path d="M4.36511 3.40197L4.35757 3.40951C4.22175 3.54532 4.00161 3.54532 3.8659 3.40951L2.38604 1.92965C2.25023 1.79384 2.25023 1.5737 2.38604 1.43798L2.39358 1.43044C2.52939 1.29463 2.74953 1.29463 2.88525 1.43044L4.36511 2.9103C4.50092 3.04612 4.50092 3.26625 4.36511 3.40197Z" fill="#CF0F47"/>
<path d="M16.8222 0.186322C16.6339 0.135826 16.4404 0.247631 16.3899 0.435925L15.851 2.44723C15.8005 2.63553 15.9123 2.82908 16.1006 2.87957C16.2889 2.93007 16.4824 2.81826 16.5329 2.62997L17.0718 0.618662C17.1222 0.430369 17.0105 0.236818 16.8222 0.186322Z" fill="#CF0F47"/>
<path d="M20.8792 4.24375C20.8287 4.05546 20.6352 3.94366 20.4469 3.99415L18.4356 4.53304C18.2473 4.58354 18.1355 4.77709 18.186 4.96538C18.2365 5.15367 18.43 5.26548 18.6183 5.21498L20.6296 4.6761C20.8179 4.6256 20.9296 4.43205 20.8792 4.24375Z" fill="#CF0F47"/>
<path d="M17.6565 3.40197L17.664 3.40951C17.7998 3.54532 18.02 3.54532 18.1557 3.40951L19.6355 1.92965C19.7714 1.79384 19.7714 1.5737 19.6355 1.43798L19.628 1.43044C19.4922 1.29463 19.272 1.29463 19.1363 1.43044L17.6565 2.9103C17.5208 3.04612 17.5208 3.26625 17.6565 3.40197Z" fill="#CF0F47"/>
<path d="M20.3449 25.1742H1.67829C1.20329 25.1742 0.87145 24.704 1.02879 24.2573L2.41589 20.3334C2.51341 20.0582 2.77442 19.8742 3.0654 19.8742H18.9577C19.2487 19.8742 19.5082 20.0582 19.6057 20.3334L20.9928 24.2573C21.1517 24.704 20.8198 25.1742 20.3449 25.1742Z" fill="black"/>
<path d="M17.8085 19.8741H4.21387L5.46258 6.40208C5.57111 5.23829 6.54779 4.34811 7.71783 4.34811H14.306C15.4746 4.34811 16.4513 5.23829 16.5597 6.40208L17.8085 19.8741Z" fill="#CF0F47"/>
<path d="M11.1845 14.0001H10.8376C10.6398 14.0001 10.4737 13.8513 10.4521 13.6547L9.92619 8.86956C9.90099 8.63999 10.0808 8.4393 10.3117 8.4393H11.7104C11.9414 8.4393 12.1212 8.63989 12.0959 8.86956L11.57 13.6547C11.5484 13.8512 11.3823 14.0001 11.1845 14.0001Z" fill="#F6F6F6"/>
<path d="M11.0106 15.782C11.2689 15.782 11.4783 15.5727 11.4783 15.3144C11.4783 15.0561 11.2689 14.8467 11.0106 14.8467C10.7523 14.8467 10.543 15.0561 10.543 15.3144C10.543 15.5727 10.7523 15.782 11.0106 15.782Z" fill="#F6F6F6"/>
<path opacity="0.05" d="M15.3861 12.4476C15.3861 15.1637 14.7382 17.7052 13.6137 19.874C12.4562 22.1072 10.7923 23.9458 8.80587 25.1741H1.67829C1.20329 25.1741 0.87145 24.7038 1.02879 24.2572L2.41589 20.3333C2.51341 20.0581 2.77442 19.8741 3.0654 19.8741H4.21351L5.46222 6.40208C5.57075 5.23829 6.54744 4.34811 7.71747 4.34811H13.2425C14.595 6.65684 15.3861 9.44523 15.3861 12.4476Z" fill="white"/>
</svg>
